<?xml version="1.0" standalone="no"?>
<!DOCTYPE svg PUBLIC "-//W3C//DTD SVG 20010904//EN"
 "http://www.w3.org/TR/2001/REC-SVG-20010904/DTD/svg10.dtd">
<svg version="1.0" xmlns="http://www.w3.org/2000/svg"
 width="500.000000pt" height="500.000000pt" viewBox="0 0 500.000000 500.000000"
 preserveAspectRatio="xMidYMid meet">
<metadata>
Created by potrace 1.14, written by Peter Selinger 2001-2017
</metadata>
<g transform="translate(0.000000,500.000000) scale(0.100000,-0.100000)"
fill="#000000" stroke="none">
<path d="M1911 4580 c-4 -3 -31 -93 -60 -200 -29 -107 -57 -208 -62 -225 -9
-30 -68 -242 -73 -260 -1 -5 -13 -52 -26 -103 l-25 -93 -85 -63 c-235 -175
-415 -447 -489 -742 -38 -150 -49 -263 -46 -434 6 -249 51 -432 154 -635 108
-210 224 -343 438 -503 17 -13 33 -35 36 -50 3 -15 7 -36 10 -47 12 -43 159
-574 178 -640 10 -38 24 -91 31 -117 9 -39 15 -47 37 -50 14 -1 282 -3 595 -2
l569 0 71 260 c40 142 94 340 121 439 34 123 56 186 70 198 11 10 58 48 105
85 84 67 193 184 252 271 216 319 294 744 213 1156 -64 319 -257 629 -504 810
-90 66 -78 43 -132 240 -11 39 -26 93 -34 120 -8 28 -35 127 -60 220 -56 209
-61 226 -81 295 -9 30 -17 59 -18 64 -2 10 -1171 16 -1185 6z m954 -330 c3
-11 8 -30 11 -42 2 -13 20 -90 39 -173 19 -82 35 -151 35 -153 0 -5 -73 10
-90 18 -16 8 -43 14 -175 35 -78 12 -320 12 -380 0 -16 -3 -79 -17 -139 -30
-60 -14 -111 -23 -113 -22 -2 3 69 320 83 370 5 16 31 17 364 17 349 0 359 -1
365 -20z m-139 -625 c111 -22 196 -51 288 -97 131 -65 187 -108 313 -235 245
-249 352 -579 308 -953 -4 -36 -9 -68 -11 -71 -2 -3 -6 -21 -9 -40 -16 -96
-93 -275 -158 -367 -51 -73 -76 -102 -162 -187 -178 -176 -405 -285 -645 -311
-195 -21 -395 0 -553 60 -87 32 -206 95 -260 136 -137 103 -262 240 -328 355
-83 146 -131 292 -146 435 -38 388 66 698 322 955 127 128 240 204 395 265 75
30 197 60 270 66 36 4 66 7 67 9 10 8 245 -7 309 -20z m-616 -2515 c36 -10
173 -35 245 -45 45 -6 237 -7 275 -1 14 1 50 7 80 11 66 9 66 9 158 30 40 9
75 15 78 12 2 -2 -7 -53 -22 -113 -14 -60 -28 -120 -30 -133 -3 -14 -7 -28 -9
-31 -2 -4 -7 -22 -10 -41 -13 -76 24 -69 -375 -69 -333 0 -359 1 -364 18 -2 9
-11 46 -20 82 -8 36 -26 113 -40 172 -15 59 -26 110 -26 113 0 8 22 6 60 -5z"/>
</g>
</svg>
